<svg xmlns="http://www.w3.org/2000/svg" viewBox="0 0 283.13 57.32"><defs><style>.cls-1{fill:#ee3c2f;}.cls-2{fill:#274152;}</style></defs><title>Asset 1</title><g id="Layer_2" data-name="Layer 2"><g id="Layer_1-2" data-name="Layer 1"><g id="Logotype"><path class="cls-1" d="M282.49,29.12h-24.9c1.22,4.51,4.94,7,10,7a15.31,15.31,0,0,0,9.14-3l5.44,5.44a21.94,21.94,0,0,1-14.86,5.88c-11.23,0-19.39-8.09-19.39-18.53A18.27,18.27,0,0,1,266.46,7.37c9.95,0,16.67,7.3,16.67,16.46A24.8,24.8,0,0,1,282.49,29.12Zm-24.9-6.8h16.17c-.07-4.51-3.58-7.16-7.66-7.16S258.73,17.89,257.58,22.33Z"/><path class="cls-1" d="M246,8.16V39.64c0,11.95-7.66,17.67-18.32,17.67a25.42,25.42,0,0,1-18.24-7.4L215.33,44c3.5,2.72,6.94,4.58,11.52,4.58,5.44,0,9.45-2.65,9.45-8.37V38.28c-2.5,2.72-6.37,4.22-10.8,4.22-9.73,0-17-7.08-17-17.6s7.3-17.53,17-17.53c5.15,0,9.16,1.86,11.59,5.22V8.16Zm-9.52,16.6c0-6.51-4.51-9.16-8.94-9.16a8.77,8.77,0,0,0-9.16,9.23c0,5.87,4.22,9.52,9.16,9.52C232,34.35,236.43,31.27,236.43,24.76Z"/><path class="cls-1" d="M206.61,22.54v21h-8.87V40.14a14.52,14.52,0,0,1-10.8,4.29c-7.73,0-12.24-4.58-12.24-10.59,0-6.44,5.22-10.3,13.38-10.3H197V22c0-3.86-2.22-6.23-6.58-6.23-3.79,0-6.28,1.74-9.12,4.61l-5.46-5.46c4.38-5.19,9.43-7.52,15.66-7.52C200.46,7.37,206.61,12.45,206.61,22.54ZM197,30.34v-.43h-7.58c-3.15,0-4.94,1.22-4.94,3.58s2.08,3.86,5.08,3.86C193.59,37.35,197,34.49,197,30.34Z"/><path class="cls-1" d="M172.75,8.16V39.64c0,11.95-7.66,17.67-18.32,17.67a25.42,25.42,0,0,1-18.24-7.4L142.12,44c3.5,2.72,6.94,4.58,11.52,4.58,5.44,0,9.45-2.65,9.45-8.37V38.28c-2.5,2.72-6.37,4.22-10.8,4.22-9.73,0-17-7.08-17-17.6s7.3-17.53,17-17.53c5.15,0,9.16,1.86,11.59,5.22V8.16Zm-9.52,16.6c0-6.51-4.51-9.16-8.94-9.16a8.77,8.77,0,0,0-9.16,9.23c0,5.87,4.22,9.52,9.16,9.52C158.79,34.35,163.23,31.27,163.23,24.76Z"/><path class="cls-1" d="M133.23,21.61v22h-9.59V22.9c0-4.08-2.65-6.87-6.58-6.87a6.5,6.5,0,0,0-6.73,6.87V43.58h-9.66V8.16h8.87v3.22a14.41,14.41,0,0,1,10.38-4C128.22,7.37,133.23,13.09,133.23,21.61Z"/><path class="cls-1" d="M97.83,29.12H72.93c1.22,4.51,4.94,7,10,7a15.31,15.31,0,0,0,9.14-3l5.44,5.44a21.94,21.94,0,0,1-14.86,5.88c-11.23,0-19.39-8.09-19.39-18.53A18.27,18.27,0,0,1,81.8,7.37c9.95,0,16.67,7.3,16.67,16.46A24.8,24.8,0,0,1,97.83,29.12Zm-24.9-6.8H89.1c-.07-4.51-3.58-7.16-7.66-7.16S74.07,17.89,72.93,22.33Z"/></g><g id="Mark"><path class="cls-2" d="M19.07,46l7.2,7.2a.62.62,0,0,0,.88,0L53.23,27.15a.62.62,0,0,0,0-.88L27.15.18a.62.62,0,0,0-.88,0l-7.2,7.2a.62.62,0,0,0,0,.88l18,18a.62.62,0,0,1,0,.88l-18,18A.62.62,0,0,0,19.07,46Z"/><rect id="_Path_" data-name="&lt;Path&gt;" class="cls-1" x="4.08" y="16.23" width="20.96" height="20.96" rx="0.62" ry="0.62" transform="translate(5.98 55.89) rotate(-135)"/></g></g></g></svg>